<?xml version="1.0" encoding="UTF-8"?>
<svg id="Layer_1" xmlns="http://www.w3.org/2000/svg" version="1.1" viewBox="0 0 314.12 290.01">
  <!-- Generator: Adobe Illustrator 30.6.0, SVG Export Plug-In . SVG Version: 2.1.4 Build 109)  -->
  <path d="M239.63,289.68l-23.59.33c-17.55.24-48.65-18.66-54.14-34.07,5.21.73,8.41,1.3,10.28.23,2.14-1.22,2.77-8.42,1.17-10.37l-12.83-14.7c-4.03,10.2,4.69,27.1.77,24.91-9.43-5.27-18.77-22.09-21.89-32.91l-4.57-15.86c-2.94-10.21-1.65-26.01,6.54-28.65,5.37-1.73,7.46,6.36,12.12,7.86,1.73.55,3.94-2.82,5.47-5.47,1.38-2.39,8.01.22,10.29,2.22,8.71,7.63,18.38,11.05,29.06,13.63l14.67,3.54c14.86,3.58,24.38,14.46,32.11,26.91l6.38,10.27c6.21,10.01,11.52,17.62,20.86,24.61,11.45,8.58-17.52,27.3-32.67,27.51Z"/>
  <path d="M185.64,170.29l30.67-1.86-25.92-2.36c-2.08-.19-5.63-3.79-5.67-5.61-.15-7.68,15.22-9.2,27.08-29.94,6.19-10.83,13.27-21.42,26.08-24.96,6.82-1.89,14.69-4.37,21.62-4.47,12.92-.18,24.29-2.12,35.05-9.37,3.01.02,9.54,2.38,11.15,5.12,18.4,31.35,5.45,70.86-27.07,86.57-21.72,10.49-44.14,15.44-68.43,11.03l-13.62-4.52-13.3-5.3c-2.06-.82-4.65-4.91-4.93-7.04-.33-2.44,3.84-7.08,7.29-7.29ZM256.23,158.11c4.33-2.5,3.23-11.49-1.13-11.8-8.47-.61-16.09,6.26-17,14.32,6.46,1.2,13.14.35,18.12-2.52Z"/>
  <path d="M130.3,214.31c2.37,21.02-5.87,30.68-21.7,45.87-13.84,13.29-13.33,26.24-19.68,28.27-11.75,3.75-58.66-35.87-43.35-84.5,10.71-34.04,37.02-58.28,72.9-63.05,3.24-.43,9.5,4.27,9.14,7.17-.48,3.89-3.22,6.36-7.8,10.45-.13-.03,3.54.81,6.11,1.58l6.6,1.97c1.82.54,1.87,6.51.64,8.36-4.84,7.36-5.79,17.8-4.8,26.62l1.94,17.26ZM76.62,204.58c3.52-2.91,6.12-7.56,6.93-10.61l3.35-12.55c-10.28,5.79-22.73,12.44-18.82,21.76.74,1.76,7.01,2.67,8.54,1.4Z"/>
  <path d="M181.43,113.21l-1.8,15.87c-17.6,7.34-10.91-11.98-27.02-29.8-6.14-6.8-13.32-12.8-17.61-21.26-2.2-4.33-4.09-13.54-3.6-18.16l3.13-29.5c1.68-15.78-4.18-22.09.16-27.11,3.79-4.38,23.2-4.28,35.07.03,21.32,7.72,40.36,23.32,46.99,45.87,3.07,10.44,5.03,22.13,5.36,33.22.64,21.55-18.62,60.52-34.48,60.67-1.85.02-5.17-2.98-5.25-5.05l-.95-24.77ZM164.66,85.39c-.65-7.39-5.64-15.6-12.24-18.41-1.65-.7-6.13,2.33-6.06,4.13.38,9.29,7.86,13.7,18.3,14.28Z"/>
  <path d="M135.16,134.66l-27.05,1.27-27,9.84c-9.77,3.56-19.53,1.71-28.31-2.48l-25.3-12.08c-5.47-2.61-11.95-4.29-17.69-4.21-19.37.27-9.32-37.54,23.68-56.27,15.28-8.67,30.6-10.09,47.37-7,30.06,5.54,56.8,20.17,72.63,47.14,1.98,3.37,3.16,12.02-.93,13.04-7.62,1.89-14.33-3.95-20.65-7.69-2.46-.58-4.01,4.08-.26,3.26,1.79,1.33,4.42,3.53,5.21,4.83l3.05,5.03c.71,1.18-3.12,5.26-4.73,5.33ZM103.67,103.96l-.04-1.55-9.3-.81c-5.72-4.48-12.93-7.4-20.15-6.05-2.05.38-4.78,4.28-4.44,6.07,1.47,7.74,13.64,5.6,24.46,3.87l9.47-1.52Z"/>
</svg>