<?xml version="1.0" encoding="UTF-8"?>
<svg id="Layer_1" xmlns="http://www.w3.org/2000/svg" version="1.1" viewBox="0 0 295.22 267.19">
  <!-- Generator: Adobe Illustrator 30.6.0, SVG Export Plug-In . SVG Version: 2.1.4 Build 109)  -->
  <path d="M269.27,162.2c-18.21-8.45-39.96-15.21-37.74-31.38.63-4.61,4.42-10.38,9.51-11.32,8.71-1.62,15.23-4.49,22.21-9.23,7.51-5.1,17.63-2.25,23.78,3.02s9.78,14.5,7.45,23.3l-4.92,18.63c-.83,3.14-4.81,7.69-7.55,8.88-3.45,1.5-8.7-.03-12.73-1.91Z"/>
  <path d="M232.83,237.31c-3.18,12.77-19.31,30.85-32.44,29.84-10.56-.82-16.13-11.86-15.85-21.51.11-3.86-1.34-9.19-2.93-12.12-4.02-7.38-1.21-14.27,5.79-17.75,9.12-4.54,17.84-.83,25.7,4.57,7.19,4.94,14.77,8.58,19.74,16.97Z"/>
  <path d="M140.64,133.04l-24.62-1.62c-6.34-.42-12.69-5.93-13.59-10.57-1.54-7.95,1.38-13.58,7.65-18.05,3.98-2.83,6.99-8.36,10.3-13,6.42-8.99,23.56-2.53,27.68,6.17s5.65,19.19,5.52,28.7c-.09,6.65-7.25,8.75-12.95,8.37Z"/>
  <path d="M217.21,95.29c-10.66-4.48-19.86-17.07-12.2-25.21,2.84-3.02,10.68-4.29,15.05-6.19,4.64-2.01,10.62-6.01,15.27-5.4,13.07,1.72,17.41,14.52,14.31,25.32-2.47,8.61-5.14,15.67-14.26,19.12l-18.18-7.64Z"/>
  <path d="M140.18,235.36c-9.77,3.83-19.95-2.59-20.83-12.9-1.22-14.21-9.3-22.27-.95-29.49,9.2-7.96,38.2,9.32,39.86,16.86,1.32,6.05-6.98,21.19-18.07,25.53Z"/>
  <path d="M82.19,125.36c-5.18,6.76-36.55,14.67-43.66-6.93-1.65-5.01,5.67-10.08,7.87-13.51,3.25-5.04,5.16-11.64,10.25-14.64,6.56-3.87,15.6.64,18.61,7.32l7.79,17.3c1.05,2.33.64,8.5-.86,10.46Z"/>
  <path d="M127.38,171.52c-3.77,5.3-20.73,13.96-31.62,9.16-4.21-1.86-11.87-7.42-9.96-13.37l6.51-20.27c1.26-3.91,3.88-7.61,7.37-8.93,10.45-3.97,18.08,7.45,24.91,17.41,2.71,3.95,7.1,9.94,2.78,16.01Z"/>
  <path d="M70.99,64.4c.86,10.25-27.59,15.11-40.42,4.79-4.23-3.4-4.77-10.46-1.96-14.91l13.64-18.89c8.43-4.78,19.89-.5,24.3,9.25,2.41,5.35,3.9,13.29,4.44,19.76Z"/>
  <path d="M172.68,38.14c-7.69,9.68-41.66-11.1-36.49-24.25,1.36-3.46,6.09-6.88,9.69-7.92L165.49.35c9.24-2.65,18.94,10.3,16.44,19.03-1.91,6.69-5.7,14.31-9.24,18.76Z"/>
  <path d="M116.07,66.76l-22.61-3.79c-3.94-2.53-7.8-7.21-8.59-10.65-1.02-4.4,3.39-8.8,7.12-12.15l15.97-14.33c13.89.32,22.64,12.31,21,26.27-.37,3.16-.95,8.32-2.23,10.59-1.38,2.46-7.44,4.59-10.65,4.05Z"/>
  <path d="M20.73,163.62c-5.04,3.45-13.38,1.07-16.54-1.74-5.89-5.24-4.05-9.73-3.45-17.29l1.26-15.85c6.21-7.11,17.42-7,24.2-.92l10,8.95c1.6,1.43,3.7,5.5,3.96,7.56.29,2.35-1.95,7.36-4.05,8.79l-15.37,10.51Z"/>
  <path d="M222.67,162.56c-16.58,3.7-36.9-.63-39.25-15.87,4.82-7.54,19.84-19.87,23.1-20.05,6.69-.38,14.52,4.86,16.41,10.58,2.76,8.36,2.91,17.89-.26,25.34Z"/>
  <path d="M83.64,188.5c-1.06,8.92-9.94,11.84-15.38,15.34-5.83,3.75-12.07,4.43-17.22.8-5.85-4.12-4.34-11.21-4.2-17.88.11-5.28-1.03-11.02,2.52-14.89,9.51-10.38,26.2,1.36,34.28,16.63Z"/>
  <path d="M184.45,180.9c-8.74,10.66-32.12,13.53-38.99-.85l6.14-16.81c1.3-3.57,3.74-7.65,6.1-9.07,2.85-1.71,9.93-1.77,12.88.15,8.63,5.63,14.11,15.49,13.87,26.58Z"/>
  <path d="M186.27,97.3c-10.58,6.8-34.47-3.26-33.16-13.52.27-2.14,2.68-5.8,4.41-7.21l7.27-5.94c3.19-2.6,7.36-6.02,11.32-6.11,3.67-.08,8.73,2.85,11.46,6.68,4.35,6.11,6.3,21.21-1.29,26.09Z"/>
  <path d="M217.91,40.08c-8.63-3.77-14.4-10.47-9.57-19.17l13.37-5c5.28-1.98,10.69-1.06,14.53,2.62,6.36,6.1.76,19.93-5.71,22.99-3.22,1.52-8.73.26-12.62-1.44Z"/>
  <path d="M92.48,240.14c-4.76,2.55-13.52,2.15-14.53-4.2-.83-5.23-.61-13.82-.1-19.34,4.63-6.49,15.02-4.03,19.33,1.32l6.5,8.05c-1.7,5.94-4.77,10.72-11.2,14.17Z"/>
</svg>